<?xml version="1.0" encoding="UTF-8" standalone="no"?>
<svg
   xmlns:dc="http://purl.org/dc/elements/1.1/"
   xmlns:cc="http://creativecommons.org/ns#"
   xmlns:rdf="http://www.w3.org/1999/02/22-rdf-syntax-ns#"
   xmlns:svg="http://www.w3.org/2000/svg"
   xmlns="http://www.w3.org/2000/svg"
   xmlns:sodipodi="http://sodipodi.sourceforge.net/DTD/sodipodi-0.dtd"
   xmlns:inkscape="http://www.inkscape.org/namespaces/inkscape"
   width="150"
   height="150"
   version="1.1"
   viewBox="0 0 39.6875 39.6875"
   id="svg24"
   sodipodi:docname="logo.svg"
   inkscape:version="0.92.2 (5c3e80d, 2017-08-06)"
   inkscape:export-filename="F:\workspace\nodejs\a-conference-site\conf-web\docs\logo.png"
   inkscape:export-xdpi="96"
   inkscape:export-ydpi="96">
  <metadata
     id="metadata30">
    <rdf:RDF>
      <cc:Work
         rdf:about="">
        <dc:format>image/svg+xml</dc:format>
        <dc:type
           rdf:resource="http://purl.org/dc/dcmitype/StillImage" />
        <dc:title></dc:title>
      </cc:Work>
    </rdf:RDF>
  </metadata>
  <defs
     id="defs28" />
  <sodipodi:namedview
     pagecolor="#ffffff"
     bordercolor="#666666"
     borderopacity="1"
     objecttolerance="10"
     gridtolerance="10"
     guidetolerance="10"
     inkscape:pageopacity="0"
     inkscape:pageshadow="2"
     inkscape:window-width="1858"
     inkscape:window-height="1057"
     id="namedview26"
     showgrid="false"
     inkscape:zoom="3.874994"
     inkscape:cx="23.157091"
     inkscape:cy="47.772863"
     inkscape:window-x="54"
     inkscape:window-y="-8"
     inkscape:window-maximized="1"
     inkscape:current-layer="svg24" />
  <g
     id="g4561"
     transform="scale(0.03125)">
    <g
       transform="translate(485.11783,9.2107512e-6)"
       id="g4548">
      <rect
         style="fill:#906f44;stroke-width:1.58468831"
         id="rect2"
         height="1270"
         width="1270"
         y="-9.2107512e-006"
         x="-485.11783" />
    </g>
    <rect
       x="5.6843419e-014"
       y="759.87024"
       width="1270"
       height="510.12973"
       id="rect20"
       style="fill:#685031;stroke-width:1.58453953" />
    <g
       transform="matrix(4.19179,0,0,4.6522466,-1944.3342,161.50741)"
       id="g18">
      <g
         transform="translate(23.085,143.64)"
         id="g8">
        <ellipse
           cx="530.07001"
           cy="-14.014"
           rx="23.962999"
           ry="18.806999"
           id="ellipse4"
           style="fill:#906f44;stroke:#ffffff;stroke-width:17.15399933;stroke-linecap:round" />
        <path
           d="m 686.96,-44.175 a 77.792,77.792 0 0 1 -39.052,67.46 77.792,77.792 0 0 1 -77.948,-0.27123 77.792,77.792 0 0 1 -38.582,-67.73"
           id="path6"
           inkscape:connector-curvature="0"
           style="fill:#ffffff" />
      </g>
      <g
         id="g16"
         style="fill:none;stroke:#ffffff;stroke-width:8">
        <path
           d="m 615,-0.66839 c -1.8484,-0.14444 -3.7338,0.21787 -5.397,1.0371 -1.6632,0.81922 -3.0996,2.0931 -4.1116,3.6465 -1.0121,1.5534 -1.597,3.382 -1.6745,5.2344 -0.0774,1.8524 0.35288,3.7235 1.2318,5.3559 0.9977,1.8531 2.5406,3.3652 4.2387,4.6086 1.6981,1.2434 3.5605,2.2402 5.3937,3.2742 1.8331,1.0339 3.6554,2.1176 5.2356,3.5077 1.5802,1.3901 2.9192,3.1141 3.5713,5.1152 0.52238,1.6031 0.58602,3.342 0.26497,4.9972 -0.32105,1.6552 -1.0196,3.2273 -1.963,4.6247 -1.8867,2.7949 -4.6996,4.8495 -7.6814,6.4242 -2.9818,1.5747 -6.1677,2.7196 -9.2572,4.071 -3.0894,1.3515 -6.1308,2.9426 -8.5832,5.2571 -2.2665,2.1391 -3.9723,4.8672 -4.9031,7.8415 -0.93076,2.9743 -1.0844,6.1881 -0.4416,9.2376 0.6428,3.0495 2.0806,5.9279 4.1327,8.2734 2.0521,2.3455 4.714,4.153 7.651,5.1952"
           id="path10"
           inkscape:connector-curvature="0" />
        <path
           d="m 641.3,-0.21495 c -1.8484,-0.14444 -3.7338,0.21787 -5.397,1.0371 -1.6632,0.81922 -3.0996,2.0931 -4.1116,3.6465 -1.0121,1.5534 -1.597,3.382 -1.6745,5.2344 -0.0774,1.8524 0.35288,3.7235 1.2318,5.3559 0.9977,1.8531 2.5406,3.3652 4.2387,4.6086 1.6981,1.2434 3.5605,2.2402 5.3937,3.2742 1.8331,1.0339 3.6554,2.1176 5.2356,3.5077 1.5802,1.3901 2.9192,3.1141 3.5713,5.1152 0.52238,1.6031 0.58602,3.342 0.26497,4.9972 -0.32105,1.6552 -1.0196,3.2273 -1.963,4.6247 -1.8867,2.7949 -4.6996,4.8495 -7.6814,6.4242 -2.9818,1.5747 -6.1677,2.7196 -9.2572,4.071 -3.0894,1.3515 -6.1308,2.9426 -8.5832,5.2571 -2.2665,2.1391 -3.9723,4.8672 -4.9031,7.8415 -0.93076,2.9743 -1.0844,6.1881 -0.4416,9.2376 0.6428,3.0495 2.0806,5.9279 4.1327,8.2734 2.0521,2.3455 4.714,4.153 7.651,5.1952"
           id="path12"
           inkscape:connector-curvature="0" />
        <path
           d="m 665.33,0.2385 c -1.8484,-0.14444 -3.7338,0.21787 -5.397,1.0371 -1.6632,0.81922 -3.0996,2.0931 -4.1116,3.6465 -1.0121,1.5534 -1.597,3.382 -1.6745,5.2344 -0.0774,1.8524 0.35288,3.7234 1.2318,5.3559 0.9977,1.8531 2.5406,3.3652 4.2387,4.6086 1.6981,1.2434 3.5605,2.2402 5.3937,3.2742 1.8331,1.0339 3.6554,2.1176 5.2356,3.5077 1.5802,1.3901 2.9192,3.1141 3.5713,5.1152 0.52238,1.6031 0.58602,3.342 0.26497,4.9972 -0.32105,1.6552 -1.0196,3.2273 -1.963,4.6247 -1.8867,2.7949 -4.6996,4.8495 -7.6814,6.4242 -2.9818,1.5747 -6.1677,2.7196 -9.2572,4.071 -3.0894,1.3515 -6.1308,2.9426 -8.5832,5.2571 -2.2665,2.1391 -3.9723,4.8672 -4.9031,7.8415 -0.93076,2.9743 -1.0844,6.1881 -0.4416,9.2376 0.6428,3.0495 2.0806,5.9279 4.1327,8.2734 2.0521,2.3455 4.714,4.153 7.651,5.1952"
           id="path14"
           inkscape:connector-curvature="0" />
      </g>
    </g>
  </g>
</svg>
